<?xml version="1.0" standalone="no"?>
<!DOCTYPE svg PUBLIC "-//W3C//DTD SVG 20010904//EN"
 "http://www.w3.org/TR/2001/REC-SVG-20010904/DTD/svg10.dtd">
<svg version="1.0" xmlns="http://www.w3.org/2000/svg"
 width="1024.000000pt" height="1024.000000pt" viewBox="0 0 1024.000000 1024.000000"
 preserveAspectRatio="xMidYMid meet">
<metadata>
Created by potrace 1.11, written by Peter Selinger 2001-2013
</metadata>
<g transform="translate(0.000000,1024.000000) scale(0.100000,-0.100000)"
fill="#000000" stroke="none">
<path d="M1331 8704 c-107 -29 -221 -104 -294 -194 -10 -12 -34 -50 -52 -83
-70 -127 -65 139 -65 -3306 0 -2831 2 -3121 16 -3180 37 -150 142 -286 273
-355 136 -71 -203 -66 3911 -66 3279 0 3723 2 3779 15 199 47 351 200 407 410
11 41 14 597 13 3175 0 2971 -1 3128 -18 3191 -39 143 -144 277 -271 343 -135
71 204 66 -3920 65 -3215 0 -3732 -2 -3779 -15z m1089 -884 l0 -300 -300 0
-300 0 0 300 0 300 300 0 300 0 0 -300z m1200 0 l0 -300 -300 0 -300 0 0 300
0 300 300 0 300 0 0 -300z m1200 0 l0 -300 -300 0 -300 0 0 300 0 300 300 0
300 0 0 -300z m3900 -3300 l0 -2400 -3600 0 -3600 0 0 2400 0 2400 3600 0
3600 0 0 -2400z"/>
<path d="M2890 5839 c-91 -94 -166 -171 -167 -173 -1 -1 66 -71 149 -156 297
-305 874 -893 920 -939 26 -25 48 -49 48 -52 0 -7 -40 -49 -544 -562 -182
-186 -386 -395 -454 -464 l-123 -126 75 -76 c41 -42 119 -121 172 -176 l96
-100 142 146 c77 81 245 254 371 385 127 131 250 259 275 284 44 45 440 456
550 570 30 31 70 73 88 92 l34 36 -209 212 c-114 117 -253 258 -308 315 -55
56 -257 263 -450 459 -192 196 -380 388 -417 427 -36 38 -70 69 -75 69 -5 0
-83 -77 -173 -171z"/>
<path d="M4820 3320 l0 -300 1350 0 1350 0 0 300 0 300 -1350 0 -1350 0 0
-300z"/>
</g>
</svg>
